<svg xmlns="http://www.w3.org/2000/svg" version="1.2" width="153" height="127" viewBox="0 0 153 127"><path d="M57.187 77.217c0 9.412-2.73 16.849-8.19 22.31-5.461 5.46-12.897 8.19-22.31 8.19H0V.967h22.875c4.924 0 9.333.517 13.225 1.55 3.891 1.032 7.297 2.6 10.216 4.705 2.919 2.105 5.163 4.885 6.731 8.34 1.569 3.455 2.353 7.486 2.353 12.093 0 6.672-1.41 11.745-4.23 15.22-2.819 3.475-7.167 6.027-13.045 7.655 6.354 2.105 11.12 5.192 14.297 9.263 3.177 4.07 4.765 9.879 4.765 17.424zM37.351 91.723c3.057-3.038 4.586-7.874 4.586-14.506 0-6.632-1.529-11.467-4.586-14.505-3.058-3.038-7.884-4.557-14.476-4.557H15.25V96.28h7.625c6.592 0 11.418-1.52 14.476-4.557zM22.875 46.717c12.708 0 19.062-6.354 19.062-19.062 0-2.105-.258-3.962-.774-5.57s-1.132-2.949-1.847-4.021c-.714-1.072-1.797-1.976-3.246-2.71-1.45-.735-2.77-1.301-3.962-1.698-1.191-.397-2.889-.685-5.093-.864-2.204-.179-4.04-.288-5.51-.328-1.47-.04-3.555-.06-6.255-.06v34.313z"/><path d="M67.387 115.375c4.13 0 7.407-.913 9.83-2.74 2.422-1.827 3.633-4.607 3.633-8.34L63.574 31.5h15.25c5.918 32.684 9.115 50.476 9.591 53.375a815.154 815.154 0 0 1 2.83-16.948c1.052-5.937 2.244-12.49 3.574-19.658 1.33-7.168 2.353-12.758 3.068-16.769h15.25l-19.063 80.062c-1.31 5.64-4.14 9.591-8.488 11.855-4.349 2.264-10.415 3.395-18.199 3.395z" fill="#f53fc7"/><path d="M129.567 0v4.008h-5.625V31.5h-4.5V4.008h-5.625V0zm11.179 31.5l-4.5-24.855V31.5h-4.5V0h6.223l4.465 24.117L146.899 0h6.222v31.5h-4.5V6.645l-4.5 24.855z"/></svg>