<svg xmlns="http://www.w3.org/2000/svg" version="1.2" width="347" height="127" viewBox="0 0 347 127"><path d="M57.531 78.618c0 9.412-2.73 16.849-8.19 22.31-5.461 5.46-12.898 8.19-22.31 8.19H.344V2.368h22.875c4.924 0 9.332.517 13.224 1.55 3.892 1.032 7.298 2.6 10.217 4.705 2.919 2.105 5.162 4.885 6.731 8.34s2.353 7.486 2.353 12.093c0 6.672-1.41 11.745-4.23 15.22-2.82 3.475-7.168 6.027-13.045 7.655 6.354 2.105 11.12 5.192 14.297 9.263 3.177 4.07 4.765 9.879 4.765 17.424zM37.694 93.124c3.058-3.038 4.587-7.874 4.587-14.506 0-6.632-1.529-11.467-4.587-14.505-3.058-3.038-7.883-4.557-14.475-4.557h-7.625V97.68h7.625c6.592 0 11.417-1.52 14.475-4.557zM23.22 48.118c12.708 0 19.062-6.354 19.062-19.062 0-2.105-.258-3.962-.774-5.57s-1.132-2.949-1.847-4.021c-.715-1.072-1.797-1.976-3.246-2.71-1.45-.735-2.77-1.301-3.962-1.698-1.191-.397-2.889-.685-5.093-.864-2.204-.179-4.041-.288-5.51-.328-1.47-.04-3.555-.06-6.255-.06v34.313zm100.542 22.875c0 4.885-.298 9.264-.894 13.136-.596 3.872-1.608 7.476-3.038 10.812-1.43 3.336-3.286 6.106-5.57 8.31-2.283 2.204-5.192 3.921-8.727 5.152-3.534 1.232-7.625 1.847-12.271 1.847-4.647 0-8.737-.615-12.272-1.847-3.534-1.23-6.443-2.948-8.727-5.152-2.283-2.204-4.14-4.974-5.57-8.31-1.43-3.336-2.442-6.94-3.038-10.812-.596-3.873-.893-8.25-.893-13.136V2.368h15.25v68.625c0 3.297.07 6.057.208 8.28.14 2.225.506 4.597 1.102 7.12.596 2.521 1.42 4.537 2.472 6.046 1.053 1.509 2.542 2.76 4.468 3.753 1.926.992 4.26 1.489 7 1.489s5.073-.497 7-1.49c1.925-.992 3.414-2.243 4.467-3.752 1.052-1.51 1.876-3.525 2.472-6.047.596-2.522.963-4.894 1.102-7.118.14-2.224.209-4.984.209-8.28V2.367h15.25zm10.71-68.625h15.25v106.75h-15.25zm27.272 106.75V2.368h15.25v95.313h26.687v11.437z"/><path d="M206.41 32.868h15.25v76.25h-15.25zm0-26.687h15.25v15.25h-15.25zm28.82 23.769c0-3.217.12-5.948.358-8.192a28.535 28.535 0 0 1 1.459-6.493c.735-2.085 1.728-3.753 2.979-5.004 1.25-1.25 2.918-2.243 5.003-2.978 2.085-.735 4.577-1.102 7.476-1.102 2.463 0 5.6.238 9.413.715v11.318a69.83 69.83 0 0 1-2.443-.328c-1.23-.178-2.124-.268-2.68-.268-2.542 0-4.23.805-5.064 2.413-.834 1.608-1.25 3.981-1.25 7.119v5.718h11.437v11.438H250.48v64.812h-15.25V44.306h-7.625V32.868h7.625z" fill="#f53fc7"/><path d="M261.787 116.743c4.13 0 7.406-.913 9.829-2.74 2.422-1.827 3.634-4.607 3.634-8.34l-17.276-72.795h15.25c5.917 32.685 9.114 50.476 9.591 53.375a815.154 815.154 0 0 1 2.83-16.947c1.052-5.938 2.243-12.49 3.574-19.659 1.33-7.168 2.353-12.758 3.068-16.769h15.25l-19.063 80.063c-1.31 5.64-4.14 9.59-8.489 11.854-4.348 2.264-10.415 3.396-18.198 3.396z" fill="#f53fc7"/><path d="M324.023 1.225v4.008h-5.625v27.492h-4.5V5.233h-5.625V1.225zm11.18 31.5l-4.5-24.856v24.856h-4.5v-31.5h6.223l4.465 24.117 4.464-24.117h6.223v31.5h-4.5V7.869l-4.5 24.856z"/></svg>