<svg version="1" xmlns="http://www.w3.org/2000/svg" width="21.333" height="21.333" viewBox="0 0 16.000000 16.000000"><path d="M11.922 1.568c0 .146.073.21.251.21.136 0 .272.062.293.125.02.073.031.71.031 1.411-.01 1.015.01 1.287.136 1.34.073.03.189.03.24-.011.053-.032.095-.69.095-1.465v-1.4h.324c.251 0 .314-.043.282-.19-.03-.146-.167-.177-.847-.208-.753-.032-.805-.01-.805.188zm1.872.178c-.031 1.39-.01 2.76.052 2.823.147.147.377.115.387-.052 0-.104.01-.648.01-1.223V2.248l.147.784c.251 1.318.356 1.652.544 1.632.084-.021.167-.116.188-.21.293-1.976.45-2.363.419-1.035-.021 1.13 0 1.245.25 1.234.137 0 .157-.272.189-1.652l.031-1.642h-.324c-.167 0-.314.01-.324.02 0 .022-.105.576-.23 1.235l-.24 1.202-.179-.993c-.104-.544-.209-1.098-.24-1.234-.032-.178-.115-.23-.356-.23-.293 0-.313.031-.324.387zM0 7.037v5.596l1.862-.021c1.61-.021 1.913-.053 2.321-.24 1.14-.513 1.684-1.35 1.757-2.71.073-1.422-.397-2.342-1.454-2.813l-.418-.188.502-.261c.858-.43 1.182-.963 1.203-1.998.02-.9-.199-1.548-.7-2.06-.68-.67-1.162-.795-3.264-.858L0 1.442v5.595zm3.608-4.12c.554.24.711.512.732 1.265.031.764-.094 1.161-.481 1.548-.376.366-.847.502-1.663.502l-.575-.01-.02-1.715c-.011-.942 0-1.757.02-1.8.094-.146 1.527 0 1.987.21zm-.031 4.79c.564.324.763.795.763 1.757-.01 1.412-.554 1.934-2.018 1.934h-.743l.01-1.997V7.404l.827.052c.533.031.941.115 1.16.25zm3.158-2.981c-.031.042.146.89.376 1.883.241.993.576 2.395.743 3.116.533 2.238.617 2.698.523 2.95-.136.355-.44.595-.91.69l-.408.083v1.14l.366.01c.481 0 1.255-.198 1.663-.439.167-.104.408-.376.533-.606.157-.324 1.715-6.578 2.03-8.168.02-.115.072-.324.114-.47.063-.272.063-.272-.67-.262-.396 0-.773.042-.825.105-.053.052-.178.596-.283 1.202-.188 1.172-.23 1.37-.313 1.778-.032.147-.136.722-.23 1.287-.095.554-.189 1.003-.21.972-.02-.02-.125-.544-.24-1.171-.105-.628-.314-1.799-.46-2.604-.147-.805-.272-1.485-.272-1.517 0-.094-1.475-.073-1.527.021z"/></svg>